Coordinates
version=1
nRows=9
nColumns=36
inDegrees=yes

Units are S.I. units (second, meters, Newtons, ...)
If the header above contains a line with 'inDegrees', this indicates whether rotational values are in degrees (yes) or radians (no).

endheader
time	pelvis_tilt	pelvis_list	pelvis_rotation	pelvis_tx	pelvis_ty	pelvis_tz	hip_flexion_r	hip_adduction_r	hip_rotation_r	knee_angle_r	knee_angle_r_beta	ankle_angle_r	subtalar_angle_r	mtp_angle_r	hip_flexion_l	hip_adduction_l	hip_rotation_l	knee_angle_l	knee_angle_l_beta	ankle_angle_l	subtalar_angle_l	mtp_angle_l	lumbar_extension	lumbar_bending	lumbar_rotation	arm_flex_r	arm_add_r	arm_rot_r	elbow_flex_r	pro_sup_r	arm_flex_l	arm_add_l	arm_rot_l	elbow_flex_l	pro_sup_l
      0.00000000	      9.60637165	      1.14798256	      2.31978189	     -0.86990458	      1.30682394	     -0.09026126	    -17.12809919	     -0.92462610	     -0.94434683	      1.95476055	      0.03411701	      1.16296778	     -9.14300701	     -6.70585075	    -15.89856728	     -0.42411656	      0.62275725	      1.86568165	      0.03256229	      3.75660845	     -2.16405109	     -6.70585075	    -19.24076348	     -0.03728341	     -0.81436342	     10.38163622	     -2.06263964	     21.45531360	     22.60311490	     72.49383736	     12.84339281	     -1.23919108	     34.41177312	     16.81965877	     64.73580286
      0.00416670	     10.22791527	      2.15373505	      3.24588148	     -0.87234583	      1.30509952	     -0.09022920	    -18.08500255	     -1.23171020	     -0.98170752	      0.96341657	      0.01681479	      4.03123577	     -4.80462877	     -6.93496990	    -16.95442467	      0.24100965	      1.76455249	      1.05572350	      0.01842585	      3.03406740	     -1.37315030	     -6.93496990	    -20.13646405	     -0.47761732	     -1.92470694	     11.09892897	     -2.52998635	     25.12011791	     22.38926992	     73.22358709	     13.80767903	     -1.97692795	     37.59256702	     17.16156034	     66.21731154
      0.00833330	     10.16662928	      2.15691683	      3.20834855	     -0.87259840	      1.30666215	     -0.08917837	    -18.13909518	     -1.12683531	     -1.83674838	      0.76988515	      0.01343703	      3.51850228	     -5.67509835	     -7.22801547	    -16.82560550	      0.25188919	      1.57540820	      1.10589093	      0.01930144	      3.19128797	      0.05244954	     -7.22801547	    -20.70973141	     -0.51831319	     -1.87237974	     11.78047667	     -3.13282588	     30.48519729	     22.13037602	     74.75038499	     14.90436412	     -2.62063596	     44.16316035	     16.36802288	     68.34591928
      0.01250000	     10.98863263	      2.26014689	      3.43202985	     -0.87389593	      1.30793430	     -0.08841055	    -19.01085867	     -1.13399056	     -2.35451315	      0.73884465	      0.01289527	      3.57416576	     -5.49704768	     -7.43198746	    -17.76190618	      0.25339549	      1.82779531	      0.79215336	      0.01382568	      3.12738019	      0.63961538	     -7.43198746	    -22.11998695	     -0.63213890	     -1.81872918	     12.31951912	     -3.31810802	     33.42636338	     21.71134973	     77.83320328	     16.12235093	     -2.99416426	     51.53369233	     15.24895948	     68.59848071
      0.01666670	     11.22332858	      2.25840040	      3.48220508	     -0.87489796	      1.30437075	     -0.08896973	    -19.24595767	     -1.12856869	     -2.49827936	      0.75151223	      0.01311636	      3.77882506	     -5.81511054	     -7.43832900	    -18.02368667	      0.21611683	      1.59671272	      0.68194044	      0.01190211	      3.59530497	      1.45078941	     -7.43832900	    -22.79954703	     -0.61388209	     -1.83156545	     12.77729324	     -3.47557858	     36.05766883	     21.57925993	     77.84804503	     16.61823943	     -3.14625552	     54.96033708	     14.92901106	     69.13334921
      0.02083330	     11.08902140	      2.42443781	      3.64609011	     -0.87611802	      1.30167381	     -0.08966692	    -19.08789494	     -1.26816268	     -2.18068367	      0.79560534	      0.01388593	      4.08216926	     -6.11043905	     -7.47104743	    -17.79709654	      0.37831866	      2.09819225	      0.67288638	      0.01174408	      3.92333547	      0.84974203	     -7.47104743	    -22.79779049	     -0.73949729	     -1.94733768	     13.52898901	     -3.42413853	     40.54080191	     20.25986225	     75.88679063	     17.44068173	     -3.11143856	     61.96600061	     13.62216115	     68.69987919
      0.02500000	     11.05470233	      2.54505799	      3.77308541	     -0.87695222	      1.30283615	     -0.08935202	    -19.05203687	     -1.36925513	     -2.24463887	      0.85222936	      0.01487421	      4.29420054	     -6.24567728	     -7.48881912	    -17.66771604	      0.46780495	      2.14481572	      0.66917715	      0.01167934	      4.14561126	      1.03632736	     -7.48881912	    -23.04512934	     -0.83548440	     -1.68458756	     13.66935527	     -3.35920755	     40.45633030	     20.00460223	     76.83366844	     18.44868050	     -2.86177392	     70.06444213	     12.40999312	     64.04789830
      0.02916670	     11.19064255	      2.57972848	      3.75923269	     -0.87510452	      1.29656556	     -0.08995691	    -19.30665118	     -1.44117106	     -2.17861272	      0.98102823	      0.01712217	      4.10397997	     -7.14204320	     -7.49288021	    -17.82889645	      0.52281756	      2.32516614	      0.69216413	      0.01208054	      4.38237595	      0.78775858	     -7.49288021	    -23.23799149	     -0.81385067	     -1.72602038	     13.96262541	     -3.28925800	     41.42008065	     19.67082449	     76.71171547	     18.82291750	     -2.79387134	     73.59929893	     11.80804616	     62.27094890
      0.03333330	     10.96656073	      2.64042851	      3.76444738	     -0.87558549	      1.29990792	     -0.08979427	    -19.05538642	     -1.53483830	     -1.95872623	      1.09023857	      0.01902825	      3.95045182	     -7.60426383	     -7.49702599	    -17.57737879	      0.60333865	      2.19597512	      0.69721083	      0.01216862	      4.47652579	      0.93871903	     -7.49702599	    -23.03276003	     -0.88920921	     -1.77061510	     14.18974572	     -3.19399731	     43.06812073	     19.24389569	     74.25480177	     18.98697706	     -2.74045998	     74.92340065	     11.30730415	     63.01625260
